<?xml version="1.0" standalone="no"?>
<!DOCTYPE svg PUBLIC "-//W3C//DTD SVG 20010904//EN"
 "http://www.w3.org/TR/2001/REC-SVG-20010904/DTD/svg10.dtd">
<svg version="1.0" xmlns="http://www.w3.org/2000/svg"
 width="500.000000pt" height="500.000000pt" viewBox="0 0 500.000000 500.000000"
 preserveAspectRatio="xMidYMid meet">
<metadata>
Created by potrace 1.14, written by Peter Selinger 2001-2017
</metadata>
<g transform="translate(0.000000,500.000000) scale(0.100000,-0.100000)"
fill="#000000" stroke="none">
<path d="M2243 4007 c-3 -4 -11 -6 -18 -3 -8 3 -16 0 -19 -7 -4 -9 -8 -8 -12
2 -5 11 -10 8 -21 -10 -9 -15 -12 -17 -9 -5 6 17 5 18 -18 3 -18 -12 -26 -13
-29 -4 -3 6 -6 1 -6 -13 -1 -19 -3 -22 -10 -11 -8 12 -12 12 -24 2 -12 -9 -16
-9 -20 1 -4 8 -6 7 -6 -4 -1 -12 -6 -15 -18 -11 -10 4 -14 2 -9 -5 4 -7 -1
-10 -13 -7 -11 2 -22 -3 -25 -11 -3 -8 -12 -11 -22 -7 -12 4 -15 3 -10 -5 5
-9 0 -9 -20 -2 -25 10 -26 9 -13 -7 12 -15 12 -16 -2 -11 -9 4 -22 1 -29 -5
-10 -9 -11 -9 -5 2 6 10 4 12 -4 7 -7 -5 -10 -14 -8 -20 4 -9 -4 -12 -23 -11
-21 1 -27 -2 -22 -13 3 -10 1 -13 -6 -8 -7 4 -12 2 -12 -3 0 -6 -5 -11 -11
-11 -5 0 -7 6 -4 13 4 6 0 4 -8 -5 -8 -10 -17 -15 -20 -11 -4 3 -7 1 -7 -5 0
-5 6 -13 13 -16 6 -3 -1 -2 -17 1 -25 5 -28 3 -22 -12 5 -15 4 -16 -9 -5 -9 7
-15 9 -14 4 1 -5 1 -16 0 -24 -1 -13 -2 -13 -11 0 -7 11 -10 11 -10 2 0 -8 -5
-10 -12 -6 -10 6 -10 5 0 -8 10 -13 9 -18 -5 -29 -16 -13 -17 -12 -4 4 10 12
10 17 1 17 -6 0 -14 -9 -17 -19 -3 -11 -13 -21 -24 -24 -13 -3 -17 -12 -14
-27 4 -18 2 -20 -11 -9 -12 10 -13 9 -8 -6 5 -13 4 -16 -4 -11 -7 4 -12 1 -12
-8 0 -8 -8 -20 -17 -26 -15 -9 -14 -10 7 -6 14 3 19 3 12 0 -6 -3 -10 -10 -7
-15 4 -5 -2 -6 -11 -2 -11 4 -15 3 -11 -4 4 -6 0 -18 -8 -26 -11 -12 -12 -17
-2 -20 7 -3 5 -6 -5 -6 -20 -1 -25 -31 -5 -31 6 -1 -1 -8 -18 -16 -16 -8 -21
-12 -11 -9 15 4 17 3 8 -8 -7 -8 -10 -17 -7 -20 3 -4 2 -5 -2 -2 -3 3 -13 -5
-21 -16 -8 -12 -11 -24 -6 -28 5 -3 10 -12 12 -20 3 -12 1 -12 -14 0 -16 13
-16 12 -5 -10 7 -13 9 -21 3 -17 -5 3 -13 -1 -16 -9 -3 -9 1 -18 9 -21 8 -4
12 -10 9 -16 -4 -5 -10 -5 -17 1 -9 7 -11 -4 -8 -41 2 -35 0 -48 -8 -44 -6 4
-11 3 -11 -3 0 -5 6 -12 13 -14 10 -4 10 -6 0 -6 -7 -1 -13 -6 -13 -12 0 -5 6
-7 13 -3 6 4 4 -2 -6 -14 -19 -21 -15 -47 6 -36 7 3 4 -1 -5 -9 -16 -13 -16
-15 0 -32 16 -18 16 -18 0 -6 -20 15 -23 9 -8 -20 6 -11 7 -19 3 -18 -24 4
-25 -4 -3 -17 21 -13 22 -15 4 -11 -13 3 -21 -1 -21 -10 0 -8 6 -12 14 -9 8 3
11 1 8 -5 -4 -5 -1 -17 6 -25 10 -12 10 -15 -2 -12 -8 2 -13 -2 -12 -8 1 -6
-9 -17 -22 -24 -14 -7 -25 -17 -25 -22 0 -5 -6 -6 -12 -2 -9 5 -8 2 1 -9 12
-15 12 -17 -2 -11 -12 4 -15 0 -13 -20 3 -27 -9 -36 -17 -13 -3 6 -4 2 -4 -10
1 -13 8 -23 17 -24 9 0 6 -4 -7 -9 -13 -5 -23 -15 -22 -22 0 -10 2 -10 6 0 2
6 8 12 12 12 10 0 7 -38 -4 -47 -4 -5 -5 -3 -2 3 3 6 0 11 -7 11 -7 0 -13 -6
-13 -13 0 -7 4 -11 9 -8 4 3 8 0 8 -6 0 -6 4 -9 8 -6 4 2 9 -5 9 -17 2 -17 0
-18 -7 -7 -5 8 -12 12 -15 8 -3 -3 1 -13 10 -21 17 -17 20 -32 5 -22 -5 3 -10
1 -10 -4 0 -6 5 -11 10 -11 6 0 10 -12 10 -26 0 -14 4 -23 8 -20 5 3 9 -1 9
-9 0 -8 -5 -12 -11 -9 -6 3 -4 -1 5 -8 12 -9 14 -20 8 -35 -6 -17 -5 -21 7
-16 10 4 12 0 8 -11 -3 -9 -11 -13 -18 -9 -7 4 -7 1 1 -9 7 -8 9 -19 5 -23 -4
-5 -1 -5 6 -1 7 4 10 11 7 16 -3 4 3 14 13 21 15 12 16 12 6 -1 -12 -18 -12
-30 0 -49 6 -10 5 -12 -2 -7 -7 4 -12 2 -12 -3 0 -6 5 -11 10 -11 6 0 8 -12 6
-26 -4 -23 -3 -24 11 -12 14 11 16 11 10 -4 -3 -10 -2 -20 2 -23 5 -3 7 -14 4
-25 -5 -18 4 -24 28 -22 3 1 6 -5 6 -13 0 -7 -7 -11 -16 -8 -9 2 -6 -2 7 -9
12 -8 19 -18 15 -24 -4 -5 -1 -3 7 4 8 6 19 12 25 12 6 0 6 -3 -1 -8 -9 -5 -8
-11 2 -20 9 -8 14 -9 14 -2 0 6 7 4 16 -4 8 -9 20 -14 25 -11 5 4 9 -3 9 -14
0 -12 5 -21 11 -21 7 0 9 -9 6 -21 -4 -16 -3 -18 8 -9 10 8 15 8 21 -1 5 -8 3
-9 -6 -4 -7 4 -11 4 -8 -1 2 -5 10 -24 17 -41 7 -18 17 -30 22 -27 5 3 9 0 9
-5 0 -6 9 -11 20 -11 11 0 20 -5 20 -11 0 -5 -4 -7 -10 -4 -5 3 -10 1 -10 -5
0 -7 7 -9 15 -6 10 3 27 -7 46 -27 17 -17 28 -26 24 -19 -4 7 0 12 10 12 9 0
14 -4 11 -9 -7 -10 22 -24 34 -16 5 3 7 -4 5 -16 -4 -18 -2 -19 11 -8 13 11
15 10 12 -5 -2 -14 4 -19 26 -22 16 -2 39 -13 50 -24 15 -15 17 -20 6 -18 -8
2 -14 -3 -12 -11 2 -9 -3 -11 -14 -7 -14 5 -15 4 -5 -8 11 -13 9 -15 -9 -11
-21 4 -21 3 -6 -20 13 -19 13 -23 2 -19 -16 6 -26 -6 -32 -43 -3 -15 -11 -34
-17 -43 -11 -13 -10 -13 6 -1 16 13 16 11 1 -24 -8 -20 -10 -34 -5 -30 6 3 11
1 11 -4 0 -6 -5 -11 -11 -11 -5 0 -7 -5 -4 -10 4 -6 11 -7 17 -4 7 5 8 2 4 -5
-5 -7 -10 -10 -13 -7 -7 7 -27 -14 -36 -37 -4 -11 -12 -15 -18 -11 -8 4 -9 3
-5 -5 4 -6 11 -9 15 -7 3 3 7 -4 7 -14 0 -14 -4 -16 -12 -9 -9 8 -12 3 -10
-15 2 -18 -2 -26 -13 -26 -14 0 -14 -2 -1 -10 14 -9 7 -14 -15 -11 -5 1 -1 -6
10 -15 20 -16 19 -16 -5 -9 -19 6 -22 4 -14 -5 14 -14 -5 -73 -21 -66 -6 2
-11 -4 -12 -13 0 -9 -3 -32 -6 -51 -3 -19 0 -41 5 -48 8 -9 7 -11 -6 -6 -12 5
-15 2 -9 -12 4 -10 2 -15 -4 -11 -5 3 -10 0 -10 -8 0 -8 5 -11 11 -8 6 4 3 -3
-7 -14 -18 -21 -18 -22 0 -32 10 -6 13 -11 7 -11 -17 0 -25 -28 -12 -36 7 -5
8 -2 3 6 -5 8 -4 11 2 7 12 -7 11 -33 -2 -61 -6 -13 -5 -21 4 -24 8 -3 9 -8 2
-16 -8 -9 -5 -19 9 -34 14 -14 16 -22 7 -25 -9 -4 -9 -6 1 -6 6 -1 12 -6 12
-11 0 -6 9 -20 20 -32 11 -12 20 -30 20 -40 0 -10 7 -18 15 -18 7 0 19 -8 24
-17 6 -10 11 -14 11 -10 0 4 6 2 14 -5 8 -7 11 -17 8 -23 -3 -5 2 -4 11 4 12
9 17 10 17 2 0 -7 5 -9 10 -6 6 3 10 2 10 -4 0 -6 7 -7 17 -4 12 5 14 3 8 -8
-6 -11 -5 -12 5 -2 11 10 18 9 34 -5 17 -14 19 -14 8 -1 -11 15 -9 17 13 15
14 0 25 -5 25 -9 0 -5 5 -5 12 -1 7 4 8 3 4 -5 -4 -6 -13 -9 -19 -5 -7 3 -1
-4 12 -15 13 -12 18 -21 11 -21 -7 0 -10 -7 -6 -17 4 -10 4 -14 0 -10 -12 11
-33 -13 -27 -30 4 -11 2 -14 -5 -9 -8 4 -10 2 -6 -7 3 -8 0 -18 -5 -22 -6 -3
-9 -11 -5 -16 3 -5 10 -6 16 -3 7 5 9 2 5 -8 -3 -9 0 -21 6 -27 15 -15 -5 -14
-23 2 -8 6 -6 2 4 -10 10 -13 23 -20 29 -16 5 3 7 1 4 -4 -4 -6 1 -19 11 -30
9 -10 13 -13 8 -6 -7 10 -4 12 8 7 10 -4 16 -15 14 -28 -2 -17 2 -21 22 -21
32 0 50 -12 44 -29 -3 -7 1 -13 8 -14 70 -8 88 -9 88 -1 0 5 7 6 15 2 9 -3 22
2 30 13 15 21 16 2 1 -26 -4 -8 4 -2 18 13 15 16 23 33 20 39 -4 7 -2 8 5 4 6
-4 9 -10 7 -14 -2 -4 1 -12 8 -18 8 -7 17 -5 31 9 11 11 14 16 6 12 -10 -6
-12 -4 -7 4 6 9 11 9 21 1 10 -8 15 -8 21 1 4 8 3 9 -4 5 -7 -4 -12 -2 -12 5
0 6 8 9 20 6 13 -3 20 0 20 8 0 8 5 17 12 21 6 4 8 3 5 -3 -4 -6 -1 -13 7 -16
10 -4 12 0 8 15 -4 17 -2 20 12 15 10 -4 15 -3 11 3 -3 6 -1 10 4 10 6 0 11 5
11 11 0 5 -6 7 -12 3 -9 -5 -9 -3 1 9 7 9 18 14 25 10 6 -4 4 2 -4 12 -8 10
-10 16 -4 12 7 -4 15 0 18 9 9 23 7 31 -3 16 -7 -11 -9 -11 -14 2 -4 9 -1 15
6 13 7 -1 12 8 11 20 -1 15 3 20 13 16 8 -3 12 -11 9 -19 -3 -7 0 -15 7 -18 8
-3 8 -5 -2 -5 -11 -1 -11 -4 0 -18 12 -15 12 -16 -1 -8 -8 4 -5 -2 7 -13 13
-13 20 -31 19 -46 -2 -14 0 -25 3 -24 3 0 16 -3 29 -7 16 -5 21 -13 17 -24 -5
-13 -4 -13 6 -4 10 10 17 9 33 -5 11 -9 16 -11 12 -4 -4 6 -2 12 3 12 6 0 11
-4 11 -9 0 -5 8 -8 18 -6 9 1 25 -2 34 -7 14 -7 16 -5 12 9 -5 16 -4 16 6 -1
10 -15 14 -16 21 -5 7 12 9 11 9 -1 1 -11 4 -10 15 4 9 12 15 15 15 7 0 -8 6
-11 15 -7 8 3 15 0 15 -7 0 -7 3 -8 8 -2 13 18 32 16 25 -3 -5 -14 -3 -13 10
3 13 17 18 18 41 7 24 -11 26 -10 17 6 -7 14 -6 19 4 19 8 0 12 -4 9 -9 -12
-19 15 -6 30 14 9 13 14 17 11 11 -3 -7 -2 -13 3 -13 15 0 22 28 9 34 -7 3 -1
3 12 0 21 -6 23 -4 19 20 -4 19 -2 24 6 17 8 -7 12 -4 12 10 0 10 -3 19 -6 19
-3 0 -6 9 -6 19 0 16 3 18 15 8 12 -10 13 -9 2 11 -7 12 -16 20 -20 18 -4 -3
-6 6 -3 21 3 18 1 24 -7 19 -6 -4 -11 -1 -11 9 0 9 5 13 10 10 6 -3 10 -1 10
4 0 6 -4 11 -9 11 -14 0 -21 29 -9 36 7 5 8 2 3 -7 -5 -8 -4 -11 1 -6 5 5 9
14 9 20 0 5 10 11 23 12 12 1 22 -3 22 -9 0 -6 5 -5 12 2 16 16 31 15 22 0 -6
-10 -4 -10 7 0 7 6 21 12 32 12 10 0 15 5 12 10 -3 6 -1 10 4 10 6 0 11 -4 11
-10 0 -5 9 -2 19 7 11 9 17 21 14 27 -4 6 2 4 12 -4 13 -10 16 -11 11 -2 -6 9
-3 12 10 10 14 -2 18 2 16 16 -3 14 1 17 12 13 14 -5 15 -3 6 13 -9 16 -7 18
10 15 12 -2 18 0 14 6 -3 5 -1 15 4 22 5 7 10 20 11 30 3 42 5 48 18 43 7 -3
13 -3 13 0 0 2 -10 9 -22 14 -14 5 -17 9 -7 9 8 1 16 11 16 24 1 12 4 34 6 50
2 15 1 30 -3 32 -4 2 -5 17 -2 31 4 21 2 25 -9 19 -12 -7 -12 -6 -1 7 11 14
10 18 -5 28 -16 10 -16 11 0 6 9 -3 17 -1 17 4 0 6 -4 10 -10 10 -5 0 -7 6 -4
14 3 8 0 17 -6 21 -9 6 -9 10 1 16 11 7 9 9 -6 9 -17 0 -17 2 -5 10 12 8 12
10 1 10 -11 0 -11 3 0 17 10 11 10 14 2 9 -8 -4 -13 -2 -13 4 0 6 -5 8 -12 4
-7 -5 -8 -3 -3 7 11 16 14 50 5 44 -3 -2 -12 0 -20 6 -8 5 -10 9 -4 9 18 0 12
32 -8 38 -10 2 -18 9 -18 14 0 5 6 6 13 2 8 -6 8 -3 -1 9 -8 9 -10 22 -6 28 5
9 2 10 -11 5 -15 -5 -16 -4 -6 8 10 11 7 17 -11 30 -15 11 -18 16 -8 16 9 1 5
7 -10 16 -14 8 -17 13 -7 10 20 -6 16 4 -12 38 -9 11 -11 16 -5 13 8 -5 11 4
9 26 -2 21 -8 31 -17 29 -10 -3 -11 -1 0 9 15 16 16 33 1 23 -6 -3 -10 1 -9
12 1 11 2 28 1 39 -1 17 -3 18 -11 5 -9 -13 -10 -13 -11 0 -1 8 -1 21 0 29 2
7 -2 11 -6 8 -5 -3 -15 3 -22 15 -7 11 -8 17 -2 13 15 -9 14 8 -1 24 -11 11
-10 12 1 6 9 -5 20 0 33 16 11 13 17 18 13 12 -3 -7 -1 -13 5 -13 6 0 13 7 16
15 4 8 11 12 17 8 6 -4 8 0 4 11 -6 14 -3 15 13 6 16 -8 20 -8 18 2 -2 7 6 13
17 13 13 0 19 7 19 18 -2 14 1 15 12 6 11 -9 14 -9 14 0 0 7 4 10 9 6 5 -3 13
0 17 6 5 8 3 9 -7 4 -12 -8 -12 -6 0 9 8 9 21 14 29 11 10 -3 12 0 9 10 -4 8
-1 17 5 21 7 4 8 3 4 -4 -4 -7 -2 -12 3 -12 6 0 11 7 11 15 0 8 6 15 14 15 13
0 32 44 27 63 -1 5 4 5 10 1 17 -10 30 18 16 35 -10 12 -9 14 5 8 10 -3 20 -1
24 5 5 7 2 8 -6 3 -8 -5 -11 -3 -8 5 2 8 15 14 27 15 13 1 32 13 43 26 11 13
17 19 14 12 -4 -6 -2 -15 4 -18 6 -4 10 -3 9 2 -4 21 2 32 14 27 7 -2 14 3 15
13 1 10 3 27 4 38 2 11 11 23 22 28 13 5 15 11 8 20 -12 15 -7 50 8 55 5 2 8
8 4 13 -3 5 0 9 7 9 9 0 9 3 0 14 -10 11 -8 17 6 25 10 6 14 11 8 11 -5 0 -4
4 4 9 12 8 12 12 2 24 -9 11 -9 17 -1 22 7 4 10 16 7 26 -3 11 -2 17 3 14 12
-8 9 208 -4 224 -8 11 -8 13 1 7 9 -5 11 -2 7 8 -3 9 -10 16 -15 16 -5 0 -14
12 -19 26 -6 14 -14 23 -18 20 -4 -2 -14 4 -21 16 -7 11 -8 17 -2 13 6 -3 11
1 11 9 0 9 -5 16 -11 16 -5 0 -7 5 -4 10 4 6 11 8 16 5 5 -3 6 1 3 9 -3 9 -11
13 -18 9 -6 -4 -5 1 3 10 11 14 11 17 0 18 -8 0 -5 4 6 9 17 7 17 9 3 9 -21 1
-24 17 -5 24 9 4 8 6 -2 6 -11 1 -11 4 -1 16 9 11 9 15 1 15 -7 0 -9 5 -4 13
13 21 12 39 -2 33 -10 -4 -11 2 -5 24 6 20 4 35 -8 51 -12 17 -12 20 -1 14 8
-5 6 1 -4 12 -18 21 -18 22 0 32 10 6 12 11 6 11 -7 0 -13 7 -13 16 0 8 -4 13
-8 10 -5 -3 -9 1 -9 8 0 9 7 12 16 8 13 -5 14 -4 1 10 -8 8 -22 13 -30 10 -9
-3 -6 2 5 11 18 15 18 16 3 17 -10 0 -18 5 -18 11 0 5 5 7 11 3 8 -5 8 -1 0
14 -6 12 -16 24 -22 27 -7 5 -6 12 3 23 11 13 11 14 -1 7 -11 -6 -13 -4 -8 9
4 10 3 15 -3 11 -7 -4 -9 3 -6 19 3 14 0 29 -6 32 -7 4 -8 2 -4 -4 4 -7 3 -12
-2 -12 -5 0 -12 9 -15 20 -8 31 -10 34 -27 50 -13 12 -13 13 0 5 13 -9 13 -8
1 8 -8 10 -21 15 -29 12 -12 -4 -13 -3 -2 10 11 14 7 19 -12 16 -4 0 -5 5 -2
12 2 7 -6 22 -18 33 l-23 19 19 -22 c11 -13 16 -23 11 -23 -17 0 -34 35 -22
48 5 7 6 12 1 11 -23 -4 -45 2 -39 11 3 6 -1 10 -9 10 -10 0 -16 9 -17 23 0
21 -1 21 -9 2 -8 -19 -10 -15 -14 18 0 6 -13 12 -29 11 -24 -1 -31 6 -29 27 1
4 -9 5 -21 2 -18 -4 -19 -3 -7 6 12 9 9 11 -15 12 -16 1 -33 1 -37 0 -4 0 -4
7 -1 16 4 11 3 14 -5 9 -7 -4 -12 -2 -12 5 0 8 -5 7 -17 -2 -11 -10 -14 -10
-9 -1 4 7 2 12 -4 12 -6 0 -8 5 -4 13 5 8 2 8 -9 -2 -12 -9 -17 -10 -17 -2 0
7 -4 9 -10 6 -5 -3 -10 -1 -10 5 0 6 -4 8 -10 5 -5 -3 -10 -1 -10 6 0 8 -5 7
-17 -2 -11 -10 -14 -10 -9 -1 8 13 6 13 -36 16 -14 0 -30 4 -34 9 -4 4 -16 7
-27 7 -16 0 -17 2 -7 15 11 13 10 14 -5 9 -14 -6 -16 -4 -10 7 8 12 6 12 -8 1
-9 -8 -22 -10 -29 -6 -10 6 -11 4 -3 -7 6 -8 2 -6 -7 4 -10 11 -18 14 -18 7 0
-7 -6 -6 -16 4 -21 21 -30 20 -13 -1 13 -15 12 -15 -7 -5 -12 6 -24 8 -28 5
-3 -3 -6 -2 -6 4 0 13 -459 13 -467 0z m990 -202 c-3 -9 -8 -14 -10 -11 -3 3
-2 9 2 15 9 16 15 13 8 -4z m-1728 -375 c-3 -5 -12 -10 -18 -10 -7 0 -6 4 3
10 19 12 23 12 15 0z m2040 -199 c3 -5 2 -12 -3 -15 -5 -3 -9 1 -9 9 0 17 3
19 12 6z m-1805 -1161 c6 -11 8 -20 6 -20 -3 0 -10 9 -16 20 -6 11 -8 20 -6
20 3 0 10 -9 16 -20z m-17 -665 c-3 -9 -8 -14 -10 -11 -3 3 -2 9 2 15 9 16 15
13 8 -4z m784 -630 c0 -8 -4 -12 -9 -9 -4 3 -8 9 -8 15 0 5 4 9 8 9 5 0 9 -7
9 -15z m-452 -206 c-4 -5 -12 -9 -18 -8 -9 0 -8 2 1 6 6 2 9 10 6 15 -4 7 -2
8 5 4 6 -4 9 -12 6 -17z m76 -46 c13 -16 12 -17 -3 -4 -17 13 -22 21 -14 21 2
0 10 -8 17 -17z m49 1 c0 -8 -19 -13 -24 -6 -3 5 1 9 9 9 8 0 15 -2 15 -3z"/>
<path d="M2880 3986 c0 -2 7 -9 15 -16 9 -7 15 -8 15 -2 0 5 -7 12 -15 16 -8
3 -15 4 -15 2z"/>
<path d="M1411 2993 c4 -16 -13 -43 -24 -36 -6 3 -7 1 -3 -5 10 -16 11 -16 30
12 10 16 12 27 6 31 -6 4 -10 3 -9 -2z"/>
<path d="M3585 2450 c-3 -6 1 -7 9 -4 18 7 21 14 7 14 -6 0 -13 -4 -16 -10z"/>
<path d="M1890 1950 c0 -5 5 -10 11 -10 5 0 7 5 4 10 -3 6 -8 10 -11 10 -2 0
-4 -4 -4 -10z"/>
<path d="M1721 973 c7 -12 15 -20 18 -17 3 2 -3 12 -13 22 -17 16 -18 16 -5
-5z"/>
<path d="M1930 626 c0 -2 7 -7 16 -10 8 -3 12 -2 9 4 -6 10 -25 14 -25 6z"/>
<path d="M1788 613 c6 -2 18 -2 25 0 6 3 1 5 -13 5 -14 0 -19 -2 -12 -5z"/>
<path d="M1837 613 c-10 -9 -9 -23 1 -23 5 0 9 7 9 15 0 17 -1 18 -10 8z"/>
<path d="M3014 599 c-3 -5 3 -6 13 -2 16 6 17 5 3 -13 -14 -18 -14 -18 6 -1
11 9 24 14 27 10 4 -3 7 -2 7 4 0 13 -48 14 -56 2z"/>
<path d="M3090 600 c0 -5 5 -10 10 -10 6 0 10 5 10 10 0 6 -4 10 -10 10 -5 0
-10 -4 -10 -10z"/>
<path d="M3116 583 c-12 -16 -21 -22 -24 -15 -5 17 -19 15 -19 -3 0 -8 4 -12
9 -9 4 3 8 0 8 -6 0 -6 12 3 26 20 21 24 29 28 36 18 8 -10 9 -10 6 1 -7 24
-22 22 -42 -6z"/>
<path d="M3180 593 c-13 -15 -12 -16 3 -10 15 5 17 3 12 -12 -3 -11 -1 -22 4
-26 7 -4 8 1 4 11 -5 12 -3 15 6 9 10 -6 11 -3 2 12 -6 11 -7 23 -4 27 3 3 2
6 -3 6 -5 -1 -16 -8 -24 -17z"/>
<path d="M1779 579 c-8 -16 -8 -24 1 -33 8 -8 9 -6 4 9 -7 18 -6 19 12 5 18
-14 18 -14 5 3 -18 23 -7 34 14 13 15 -14 35 -14 35 0 0 3 -4 3 -9 0 -5 -3
-14 1 -21 9 -17 20 -27 19 -41 -6z"/>
<path d="M2950 561 c0 -6 4 -12 8 -15 5 -3 9 1 9 9 0 8 -4 15 -9 15 -4 0 -8
-4 -8 -9z"/>
<path d="M2980 562 c0 -5 7 -9 15 -9 8 0 15 4 15 9 0 4 -7 8 -15 8 -8 0 -15
-4 -15 -8z"/>
<path d="M3119 553 c-13 -17 -13 -17 6 -3 11 8 22 16 24 17 2 2 0 3 -6 3 -6 0
-17 -8 -24 -17z"/>
<path d="M2070 540 c0 -5 5 -10 11 -10 5 0 7 5 4 10 -3 6 -8 10 -11 10 -2 0
-4 -4 -4 -10z"/>
<path d="M2770 540 c0 -5 5 -10 11 -10 5 0 7 5 4 10 -3 6 -8 10 -11 10 -2 0
-4 -4 -4 -10z"/>
<path d="M2937 529 c4 -13 8 -18 11 -10 2 7 -1 18 -6 23 -8 8 -9 4 -5 -13z"/>
</g>
</svg>
